<svg xmlns="http://www.w3.org/2000/svg" width="23" viewBox="0 0 23 20.03">
  <defs>
    <style>
      .cls-1 {
        fill: #1c60ff;
        fill-rule: evenodd;
      }
    </style>
  </defs>
  <path id="twitter" class="cls-1" d="M1353.37,9832.35a9.185,9.185,0,0,1-3,1.23,4.586,4.586,0,0,0-3.44-1.6,4.9,4.9,0,0,0-4.72,5.05,5.4,5.4,0,0,0,.12,1.15,13.114,13.114,0,0,1-9.72-5.27,5.221,5.221,0,0,0-.64,2.53,5.147,5.147,0,0,0,2.1,4.21,4.5,4.5,0,0,1-2.14-.64v0.07a4.976,4.976,0,0,0,3.78,4.95,4.226,4.226,0,0,1-1.24.18,4.406,4.406,0,0,1-.89-0.09,4.773,4.773,0,0,0,4.41,3.5,9.07,9.07,0,0,1-5.86,2.17,10.546,10.546,0,0,1-1.13-.07,12.764,12.764,0,0,0,7.24,2.27c8.67,0,13.42-7.7,13.42-14.37l-0.02-.66a9.82,9.82,0,0,0,2.36-2.61,9.139,9.139,0,0,1-2.71.8A5.065,5.065,0,0,0,1353.37,9832.35Z" transform="translate(-1331 -9831.97)"/>
</svg>
