<svg xmlns="http://www.w3.org/2000/svg" width="65" height="56" viewBox="0 0 65 56">
  <defs>
    <style>
      .cls-1 {
        fill: #1c60ff;
        fill-rule: evenodd;
      }
    </style>
  </defs>
  <path id="_7" data-name="7" class="cls-1" d="M312.156,3133.98H314l-24.519-42.24-0.008.02,0-.01-15.616,26.9H271.7l16.69-28.75-0.921-1.59-17.611,30.34h-2.149l18.686-32.19-0.921-1.59-19.607,33.78h-2.147l20.679-35.63-0.92-1.58-21.6,37.21h-2.148l22.674-39.06-0.922-1.59-24.517,42.24h0.017l-0.006.01h31.231l1.073,1.85H255.9l-0.92,1.59h35.222l1.074,1.85H253.911l-0.92,1.58H292.2l1.073,1.85h-41.36L251,3130.56h43.2l1.073,1.85H249.922L249,3134h49.036l-0.009-.02h0.011l-15.616-26.9,1.073-1.85,16.69,28.76,1.843-.01-17.61-30.34,1.073-1.85,18.685,32.2,1.843-.01-19.606-33.77,1.074-1.85,20.68,35.63,1.841-.01-21.6-37.21,1.074-1.85ZM287.3,3118.66H275.689l5.806-10Z" transform="translate(-249 -3078)"/>
</svg>
