<svg xmlns="http://www.w3.org/2000/svg" width="57" height="57" viewBox="0 0 57 57">
  <defs>
    <style>
      .cls-1 {
        fill: #1c60ff;
        fill-rule: evenodd;
      }
    </style>
  </defs>
  <path id="_4" data-name="4" class="cls-1" d="M1209.5,1509.36l-7.86-7.86,7.86-7.86,7.86,7.86Zm-5.91-7.86,5.91,5.9,5.9-5.9-5.9-5.9Zm5.91,11.99-11.99-11.99,11.99-11.99,11.99,11.99Zm-10.03-11.99,10.03,10.03,10.03-10.03-10.03-10.03Zm10.03,16.11-16.12-16.11,16.12-16.11,16.11,16.11Zm-14.16-16.11,14.16,14.16,14.16-14.16-14.16-14.16Zm14.16,20.24-20.24-20.24,20.24-20.24,20.24,20.24Zm-18.29-20.24,18.29,18.29,18.29-18.29-18.29-18.29Zm18.29,24.37-24.37-24.37,24.37-24.37,24.37,24.37Zm-22.42-24.37,22.42,22.42,22.42-22.42-22.42-22.42Zm22.42,28.5-28.5-28.5,28.5-28.5,28.5,28.5Zm-26.55-28.5,26.55,26.55,26.55-26.55-26.55-26.55Z" transform="translate(-1181 -1473)"/>
</svg>
