<svg xmlns="http://www.w3.org/2000/svg" viewBox="0 0 24.42 22.5"><defs><style>.cls-1{fill:#1b5fff;}</style></defs><title>kakaotalk</title><path class="cls-1" d="M25.25,7.27A8.27,8.27,0,0,0,23.61,4.5a15.27,15.27,0,0,0-1.36-1.31,10.48,10.48,0,0,0-2.37-1.51,13.41,13.41,0,0,0-2.68-1A13.22,13.22,0,0,0,15,.32C14.43.26,13.81.25,13.2.25c-.43,0-.85,0-1.28.07s-.71.1-1.06.17S10,.66,9.54.77a9.25,9.25,0,0,0-1.16.38c-.57.23-1.13.47-1.67.74A10.12,10.12,0,0,0,4.22,3.65,9.92,9.92,0,0,0,2.64,5.49a8.81,8.81,0,0,0-1,2,8,8,0,0,0-.38,2,7.22,7.22,0,0,0,.18,2.12,8.18,8.18,0,0,0,1.09,2.56,9.54,9.54,0,0,0,1.91,2.2A12.76,12.76,0,0,0,6.7,17.87c.25.14.26.14.2.41,0,0,0,0,0,.06-.15.54-.29,1.08-.44,1.62l-.63,2.31c-.05.19,0,.34.12.42a.35.35,0,0,0,.42,0l1.43-1,1.76-1.19,1.62-1.09a.47.47,0,0,1,.38-.07,5.77,5.77,0,0,0,.71.1h1.32a8.78,8.78,0,0,0,2.23-.13,17.33,17.33,0,0,0,2-.45,12.53,12.53,0,0,0,3.09-1.36,10.51,10.51,0,0,0,2.85-2.46,11.93,11.93,0,0,0,.9-1.33,6.57,6.57,0,0,0,.82-2.1,11,11,0,0,0,.19-1.15A7.47,7.47,0,0,0,25.25,7.27Zm-17.64,1c-.21,0-.21,0-.21.21v2h0v2a.61.61,0,0,1-.41.59.63.63,0,0,1-.74-.2,1.07,1.07,0,0,1-.14-.5c0-1.3,0-2.6,0-3.9,0-.22,0-.22-.22-.22H4.94a.56.56,0,0,1-.59-.59.6.6,0,0,1,.6-.6h3.6a.57.57,0,0,1,.6.6.54.54,0,0,1-.6.59Zm6,4.4a.54.54,0,0,1-.59.45.6.6,0,0,1-.62-.45c-.07-.2-.14-.41-.2-.63a.17.17,0,0,0-.19-.13H9.92a.18.18,0,0,0-.2.15c-.07.23-.14.45-.23.68a.61.61,0,0,1-.82.34.59.59,0,0,1-.38-.75c.19-.53.39-1.06.59-1.58.38-1,.76-2,1.15-3a1,1,0,0,1,1.2-.66,1,1,0,0,1,.62.63q.84,2.25,1.65,4.5A1.1,1.1,0,0,1,13.57,12.65Zm3.9.06A.51.51,0,0,1,17,13H14.63c-.34,0-.56-.3-.56-.71,0-.77,0-1.55,0-2.32s0-1.55,0-2.32A.62.62,0,0,1,14.86,7a.59.59,0,0,1,.49.51,2.17,2.17,0,0,1,0,.26v3.85c0,.2,0,.2.2.2h1.36A.59.59,0,0,1,17.47,12.71Zm4.41.38a.67.67,0,0,1-.69-.3l-1.46-2a2.77,2.77,0,0,0-.19-.25l-.29.33a.37.37,0,0,0,0,.18c0,.45,0,.91,0,1.37a.62.62,0,0,1-.66.65.6.6,0,0,1-.64-.65V7.68a.61.61,0,0,1,.36-.61.67.67,0,0,1,.74.1.61.61,0,0,1,.2.49V9.27c.23-.22.48-.42.71-.65.44-.44.86-.9,1.3-1.34a.61.61,0,0,1,.72-.12.52.52,0,0,1,.34.58.49.49,0,0,1-.13.28c-.4.44-.81.86-1.22,1.29l-.35.34a.14.14,0,0,0,0,.22l1.51,2a2.63,2.63,0,0,1,.27.41A.57.57,0,0,1,21.88,13.09Z" transform="translate(-1.29 -0.25)"/><path class="cls-1" d="M10.92,8.4l-.78,2.33h1.6L11,8.39Z" transform="translate(-1.29 -0.25)"/></svg>