<svg xmlns="http://www.w3.org/2000/svg" width="57" height="57" viewBox="0 0 57 57">
  <defs>
    <style>
      .cls-1 {
        fill: #1c60ff;
        fill-rule: evenodd;
      }
    </style>
  </defs>
  <path id="_1" data-name="1" class="cls-1" d="M1218.28,1355.12l20.72-20.43-0.9-.88-19.82,19.54-1.06-1.04,20.07-19.74-0.9-.88-20.06,19.74-1.06-1.04,20.06-19.74-0.9-.88-20.06,19.73-1.05-1.04,20.06-19.74-0.9-.88-20.06,19.74-1.06-1.05,20.07-19.74L1210.31,1306l-0.9.88,20.23,19.91-1.06,1.04-20.23-19.91-0.9.88,20.23,19.91-1.06,1.04-20.22-19.9-0.91.88,20.24,19.9-1.06,1.05-20.23-19.91-0.9.88,20.23,19.91-1.06,1.04-20-19.72L1182,1334.31l0.9,0.88,19.82-19.54,1.05,1.04-20.06,19.74,0.9,0.88,20.06-19.74,1.06,1.05-20.06,19.73,0.9,0.88,20.05-19.73,1.06,1.04-20.06,19.74,0.9,0.88,20.06-19.73,1.05,1.04-20.06,19.74,21.12,20.79,0.9-.88-20.23-19.91,1.06-1.04,20.23,19.91,0.9-.88-20.23-19.91,1.05-1.04,20.23,19.9,0.91-.88-20.24-19.9,1.06-1.05,20.23,19.91,0.9-.88-20.23-19.91,1.06-1.04Zm3.54-20.64-11.35,11.17-11.29-11.13,11.35-11.17Z" transform="translate(-1182 -1306)"/>
</svg>
