<svg xmlns="http://www.w3.org/2000/svg" width="64" height="55" viewBox="0 0 64 55">
  <defs>
    <style>
      .cls-1 {
        fill: #1c60ff;
        fill-rule: evenodd;
      }
    </style>
  </defs>
  <path id="_8" data-name="8" class="cls-1" d="M1299.52,3117.35l-0.05-.09,6.53-10.76-16.01-27.5-31.52.01L1242,3106.5l15.95,27.5h31.53l9.88-16.56Zm-46.34,5.7h4.79l2.38,4.1h-4.79Zm41.56-33.09h-4.79l-2.38-4.1h4.8Zm-18.32,20.77h-4.92l-2.46-4.23,2.46-4.22h4.92l2.46,4.22Zm1.6-8.45h4.77l2,3.45h-4.76Zm-0.09-1.38,2.04-3.47,2.01,3.47h-4.05Zm-1.6,0h-4.03l2.38-4.1h4.05Zm-5.26-.63-1.92-3.47h3.93Zm-0.81,1.39-2.02,3.47-2.38-4.1,2.07-3.56Zm-3.17,4.23h-4.06l2.03-3.48Zm0.8,1.38,2.01,3.46h-4.76l-2.02-3.46h4.77Zm2.1,4.84-2.04,3.46-2.01-3.46h4.05Zm1.61,0h4.02l-2.39,4.09h-4.04Zm5.25,0.63,1.92,3.46h-3.93Zm0.81-1.4,2.02-3.46,2.38,4.1-2.07,3.56Zm3.17-4.23h4.06l-2.03,3.49Zm3.56-4.83h4.76l2.01,3.45h-4.76Zm-0.8-1.38-2.39-4.1h4.77l2.38,4.1h-4.76Zm-2.44-5.47,2.02-3.44,2,3.44h-4.02Zm3.24-4.1h4.76l2.38,4.1h-4.76Zm-0.03-1.37,2.01-3.42,1.98,3.42h-3.99Zm-4.82,5.47h-4.06l2.39-4.1h4.08Zm-5.66,0h-4.76l2.38-4.1h4.77Zm-5.92-.77-1.84-3.33h3.78Zm-2.02-4.7,2.38-4.1h4.76l-2.38,4.1h-4.76Zm-1.08-.9-1.78-3.2h3.64Zm-0.03,2.8,2.32,4.2-2.09,3.59-2.38-4.09Zm-0.57,9.17-2.38,4.1-2.39-4.1,2.39-4.1Zm-3.54,4.86h-4.06l2.03-3.48Zm0.8,1.38,2.01,3.46h-4.76l-2.01-3.46h4.76Zm2.81,4.84,2.39,4.09h-4.77l-2.38-4.09h4.76Zm2.44,5.47-2.02,3.44-2-3.44h4.02Zm-3.24,4.1h-4.76l-2.38-4.1h4.76Zm0.03,1.37-2.01,3.41-1.98-3.41h3.99Zm4.82-5.47h4.05l-2.38,4.1h-4.08Zm5.66,0h4.76l-2.38,4.1h-4.77Zm5.92,0.76,1.85,3.34h-3.79Zm2.03,4.71-2.39,4.1h-4.76l2.38-4.1h4.77Zm1.08,0.9,1.77,3.2h-3.64Zm0.02-2.8-2.32-4.2,2.09-3.6,2.38,4.1Zm0.57-9.17,2.38-4.1,2.39,4.1-2.38,4.09Zm3.54-4.87h4.06l-2.03,3.49Zm5.21,0.77,2.38,4.09-2.38,4.1-2.38-4.09Zm1.16-.77h4.05l-2.02,3.49Zm-0.81-1.38-2.01-3.45h4.77l2.01,3.45h-4.77Zm-2.81-4.83-2.38-4.1h4.77l2.38,4.1h-4.77Zm3.99-4.1h4.78l2.37,4.1h-4.77Zm-0.8-1.37-2.39-4.1h4.79l2.38,4.1h-4.78Zm-10.38-5.47h-4.09l2.38-4.1h4.12Zm-5.69,0h-4.77l2.38-4.1h4.77Zm-1.59-5.48,2.39-4.1h4.76l-2.38,4.1h-4.77Zm-1.6,0h-4.76l2.38-4.1h4.76Zm-6.36,0h-4.77l2.39-4.1h4.76Zm-5.8,1.77,2.32,4.2-2.16,3.73-2.39-4.1Zm-0.64,9.31-2.39,4.09-2.38-4.09,2.38-4.1Zm-5.57-1.38-2.23-3.83,2.42-4.03,2.19,3.76Zm-0.8,1.38-2.38,4.09-2.28-3.9,2.42-4.04Zm0.8,1.37,2.38,4.1-2.38,4.1-2.38-4.1Zm-1.16,8.96h-4.05l2.03-3.48Zm0.81,1.38,2.01,3.46h-4.77l-2.01-3.46h4.77Zm2.81,4.84,2.38,4.09h-4.76l-2.39-4.09h4.77Zm-3.99,4.09h-4.77l-2.38-4.09h4.77Zm0.8,1.38,2.39,4.1h-4.79l-2.38-4.1h4.78Zm10.38,5.47h4.09l-2.38,4.1h-4.12Zm5.69,0h4.77l-2.39,4.1h-4.76Zm1.58,5.47-2.37,4.1h-4.77l2.38-4.1h4.76Zm1.61,0h4.76l-2.38,4.1h-4.77Zm6.36,0h4.77l-2.38,4.1h-4.77Zm5.8-1.77-2.33-4.2,2.17-3.72,2.39,4.09Zm0.64-9.3,2.39-4.1,2.38,4.1-2.38,4.09Zm5.57,1.38,2.22,3.81-2.42,4.04-2.18-3.76Zm0.8-1.38,2.39-4.1,2.26,3.9-2.42,4.04Zm3.19-5.48,2.38-4.09,2.32,3.98-2.42,4.04Zm5.51-1.46-1.98-3.4h4.01Zm-2.78-4.78-2.01-3.45h4.78l2,3.45h-4.77Zm-7.56-21.25h-3.99l2-3.41Zm-5.6,0h-4.12l2.38-4.1h4.15Zm-22.44-4.1-1.78,3.07-1.7-3.07h3.48Zm-2.59,4.46-2.25,3.87-2.18-3.75,2.34-3.89Zm-9.41,16.19-2.39,4.1-2.32-3.99,2.42-4.04Zm-5.52,1.47,1.98,3.39h-4.01Zm2.78,4.77,2.01,3.46h-4.76l-2.02-3.46h4.77Zm7.57,21.25h3.98l-2,3.42Zm5.59,0h4.12l-2.38,4.1h-4.15Zm22.44,4.1,1.78-3.07,1.7,3.07h-3.48Zm2.59-4.46,2.25-3.86,2.17,3.73-2.33,3.89Z" transform="translate(-1242 -3079)"/>
</svg>
