<svg xmlns="http://www.w3.org/2000/svg" xmlns:xlink="http://www.w3.org/1999/xlink" width="31" height="27" viewBox="0 0 31 27"><defs><path id="1md3a" d="M1516.95 359.34l-8.2 13.38-5.88-9.62 4.7-7.67a.93.93 0 0 1 1.18-.34l8.15 4.1.02.02a.1.1 0 0 1 .03.13zm-8.95 14.62l-7.71-3.88v-8.73zm9-12.24v15.37c0 .77-.67 1.06-1.5.65l-6.34-3.2zm-18-2.42v17.79c0 .57-.3.9-.74.9-.16 0-.33-.04-.5-.13l-7.02-3.52a1.5 1.5 0 0 1-.74-1.22v-17.28c0-.46.24-.73.59-.73.12 0 .26.03.4.1l7.96 4c.03.02.05.05.05.09z"/></defs><g><g transform="translate(-1488 -353)"><use fill="#fff" xlink:href="#1md3a"/></g></g></svg>