<svg xmlns="http://www.w3.org/2000/svg" width="45" height="56" viewBox="0 0 45 56">
  <defs>
    <style>
      .cls-1 {
        fill: #1c60ff;
        fill-rule: evenodd;
      }
    </style>
  </defs>
  <path id="_5" data-name="5" class="cls-1" d="M1438.2,1483.15l-14.83,18.86,6.44,8.19-1.25,1.59-7.69-9.78c1.71-2.18,15.91-20.23,15.91-20.23l-1.01-.43c-16.16,20.55-16.16,20.55-16.16,20.66v0.12l8.28,10.52-1.25,1.59-9.62-12.23,17.84-22.68-1.01-.42-18.01,22.89-0.16.21,10.29,13.08-1.25,1.59-11.54-14.67,19.76-25.12-1.01-.43L1412,1501.8l-0.17.21,12.22,15.53-1.26,1.59L1409.34,1502l21.67-27.57L1430,1474l-22,28,14.79,18.85,14.83-18.86-6.44-8.19,1.25-1.59,7.69,9.78c-1.71,2.18-15.91,20.23-15.91,20.23l1.01,0.43c16.16-20.55,16.16-20.55,16.16-20.66v-0.12l-8.28-10.52,1.25-1.59,9.62,12.23-17.84,22.68,1.01,0.43,18.01-22.9,0.17-.21-10.29-13.08,1.24-1.59,11.54,14.67-19.76,25.12,1.01,0.43,19.93-25.34,0.17-.21-12.21-15.53,1.25-1.59,13.45,17.13-21.67,27.57L1431,1530l22-28Zm-1.93,18.84-5.78,7.35-5.77-7.33,5.79-7.36Z" transform="translate(-1408 -1474)"/>
</svg>
