<?xml version="1.0" encoding="utf-8"?>
<!-- Generator: Adobe Illustrator 22.0.1, SVG Export Plug-In . SVG Version: 6.00 Build 0)  -->
<svg height="56" width="56" version="1.1" id="Layer_1" xmlns="http://www.w3.org/2000/svg" xmlns:xlink="http://www.w3.org/1999/xlink" x="0px" y="0px"
	 viewBox="0 0 58.4 58.1" style="enable-background:new 0 0 58.4 58.1;" xml:space="preserve">
<style type="text/css">
	.st0{fill:none;stroke:#1c60ff;stroke-width:2;stroke-miterlimit:10;}
</style>
<g>
	<rect x="25.6" y="25.5" class="st0" width="7" height="7"/>
	<rect x="1.1" y="1" class="st0" width="56" height="56"/>
	<g>
		<line class="st0" x1="46.6" y1="15" x2="11.5" y2="15"/>
	</g>
	<g>
		<line class="st0" x1="39.6" y1="18.5" x2="18.6" y2="18.5"/>
	</g>
	<g>
		<line class="st0" x1="36.1" y1="22" x2="22.1" y2="22"/>
	</g>
	<g>
		<line class="st0" x1="39.6" y1="39.5" x2="18.6" y2="39.5"/>
	</g>
	<g>
		<line class="st0" x1="36.1" y1="36" x2="22.1" y2="36"/>
	</g>
	<g>
		<line class="st0" x1="53.6" y1="8" x2="4.6" y2="8"/>
	</g>
	<g>
		<line class="st0" x1="53.6" y1="4.5" x2="4.6" y2="4.5"/>
	</g>
	<g>
		<line class="st0" x1="46.6" y1="11.5" x2="11.5" y2="11.5"/>
	</g>
	<g>
		<line class="st0" x1="39.6" y1="15" x2="39.6" y2="43"/>
	</g>
	<g>
		<line class="st0" x1="43.1" y1="15" x2="43.1" y2="43"/>
	</g>
	<g>
		<line class="st0" x1="46.6" y1="8" x2="46.6" y2="50"/>
	</g>
	<g>
		<line class="st0" x1="53.6" y1="1" x2="53.6" y2="57"/>
	</g>
	<g>
		<line class="st0" x1="50.1" y1="8" x2="50.1" y2="50"/>
	</g>
	<g>
		<line class="st0" x1="18.6" y1="15" x2="18.6" y2="43"/>
	</g>
	<g>
		<line class="st0" x1="22.1" y1="18.5" x2="22.1" y2="39.5"/>
	</g>
	<g>
		<line class="st0" x1="36.1" y1="18.5" x2="36.1" y2="39.5"/>
	</g>
	<g>
		<line class="st0" x1="15.1" y1="15" x2="15.1" y2="43"/>
	</g>
	<g>
		<line class="st0" x1="11.6" y1="8" x2="11.6" y2="50"/>
	</g>
	<g>
		<line class="st0" x1="4.6" y1="1" x2="4.6" y2="57"/>
	</g>
	<g>
		<line class="st0" x1="8.1" y1="8" x2="8.1" y2="50"/>
	</g>
	<g>
		<line class="st0" x1="46.6" y1="43" x2="11.5" y2="43"/>
	</g>
	<g>
		<line class="st0" x1="53.6" y1="50" x2="4.6" y2="50"/>
	</g>
	<g>
		<line class="st0" x1="53.6" y1="53.5" x2="4.6" y2="53.5"/>
	</g>
	<g>
		<line class="st0" x1="46.6" y1="46.5" x2="11.5" y2="46.5"/>
	</g>
</g>
</svg>
