<svg xmlns="http://www.w3.org/2000/svg" width="59" height="57" viewBox="0 0 59 57">
  <defs>
    <style>
      .cls-1 {
        fill: #1c60ff;
        fill-rule: evenodd;
      }
    </style>
  </defs>
  <path id="_2" data-name="2" class="cls-1" d="M1436.44,1350.33l-19.48.01-7.41-22.8,23.16-16.79,26.56,19.26L1460,1329l-27.29-19.79-24.63,17.86,7.97,24.51h21.29l5.19-15.91-11.49-8.33,1.59-1.15,12.09,8.77-6.02,18.48h-24.01l-8.84-27.18,26.56-19.26-0.73-1-27.3,19.79,9.41,28.89,25.82,0.01,6.58-20.21-13.56-9.83-11.49,8.33-0.61-1.87,12.1-8.77,15.75,11.43-7.42,22.79h-28.63l-10.15-31.17-1.18.39,10.43,32.02h30.44l7.98-24.51-17.22-12.49-13.57,9.84,4.39,13.47h-1.96l-4.62-14.19,15.76-11.42,19.41,14.08-8.84,27.18h-32.83v1.25h33.74l9.4-28.9-20.88-15.15-17.23,12.49,5.18,15.91h14.2l-0.61,1.86h-14.94l-6.03-18.49,19.43-14.07,23.16,16.79-10.14,31.17,1.19,0.38,10.42-32.03-24.63-17.85-20.89,15.14,6.58,20.21h16.76l4.39-13.48,1.59,1.15Zm-1.25-6.22h-10.43l-3.22-9.89,8.44-6.11,8.43,6.11Z" transform="translate(-1401 -1306)"/>
</svg>
