<svg xmlns="http://www.w3.org/2000/svg" width="55" height="49" viewBox="0 0 55 49">
  <defs>
    <style>
      .cls-1 {
        fill: #1c60ff;
        fill-rule: evenodd;
      }
    </style>
  </defs>
  <path id="_3" data-name="3" class="cls-1" d="M1691,1333.82l-1.29-.76-5.59,9.82h-2.24l7.04-12.36-1.29-.76-7.47,13.12h-2.24l8.92-15.67-1.29-.76-9.32,16.43h-2.28l10.81-18.98-1.3-.75-11.23,19.73h-2.24l12.68-22.28-6-10.6-1.29.76,5.58,9.82-1.11,1.96-7.04-12.36-1.29.75,7.46,13.12-1.12,1.97-8.92-15.67-1.29.76,9.37,16.4-1.14,1.99-10.8-18.97-1.29.75,11.23,19.74-1.12,1.97-12.68-22.29-12.05-.02v1.51h11.17l1.13,1.97h-14.08v1.51h14.93l1.12,1.97h-17.83v1.51h18.68v-0.02l1.14,1.99h-21.6v1.52h22.46l1.12,1.96h-25.37l-6.04,10.58,1.29,0.76,5.59-9.82h2.24l-7.04,12.36,1.29,0.76,7.48-13.12h2.23l-8.92,15.67,1.29,0.76,9.35-16.42-0.02-.01h2.27l-10.81,18.98,1.3,0.75,11.23-19.73h2.24l-12.68,22.28,6,10.6,1.29-.76-5.59-9.81,1.12-1.97,7.04,12.36,1.29-.75-7.46-13.13,1.12-1.96,8.91,15.67,1.3-.76-9.34-16.41,1.11-1.98,10.8,18.97,1.29-.75-11.23-19.74,1.12-1.97,12.68,22.29,0.01-.01-0.01.03h12.05v-1.51h-11.17l-1.12-1.97h14.07v-1.51h-14.93l-1.12-1.97h17.83v-1.52h-18.68l-1.14-1.96h21.6v-1.52h-22.46l-1.12-1.96h25.37Zm-32.27,9.06-4.77-8.38,4.77-8.38h9.54l4.77,8.38-4.77,8.38h-9.54Z" transform="translate(-1636 -1310)"/>
</svg>
