<svg xmlns="http://www.w3.org/2000/svg" xmlns:xlink="http://www.w3.org/1999/xlink" width="34" height="35" viewBox="0 0 34 35"><defs><path id="58dna" d="M1509.44 605h1.07v3.37h-1.07zm-19.95 0h1.07v3.37h-1.07zm0 28.63h1.07V637h-1.07zm19.95 0h1.07V637h-1.07zM1484 610.5h3.37v1.07H1484zm0 19.95h3.37v1.07H1484zm5.14.53v-19.94c0-.5.4-.9.89-.9h19.94c.5 0 .9.4.9.9v19.94a.89.89 0 0 1-.9.9h-19.94c-.5 0-.9-.4-.9-.9zm1.78-.89h18.16v-18.16h-18.16zm21.71.36h3.37v1.07h-3.37zm0-19.95h3.37v1.07h-3.37z"/></defs><g><g transform="translate(-1483 -603)"><use fill="#fff" xlink:href="#58dna"/></g></g></svg>