<svg xmlns="http://www.w3.org/2000/svg" xmlns:xlink="http://www.w3.org/1999/xlink" version="1.1" x="0px" y="0px" viewBox="0 0 100 100" enable-background="new 0 0 100 100" xml:space="preserve"><path d="M7.5,52.5H15v40c0,1.4,1.1,2.5,2.5,2.5h65c1.4,0,2.5-1.1,2.5-2.5v-40h7.5c2.2,0,3.3-2.7,1.8-4.3L51.8,5.7c-1-1-2.6-1-3.5,0  L5.7,48.2C4.2,49.8,5.3,52.5,7.5,52.5z M50,11l36.5,36.5h-4c-1.4,0-2.5,1.1-2.5,2.5v40H20V50c0-1.4-1.1-2.5-2.5-2.5h-4L50,11z"/><path d="M40,70c-3.2,0-3.2,5,0,5h7.5v2.5c0,3.2,5,3.2,5,0V75h1.3c4.8,0,8.8-3.9,8.8-8.8s-3.9-8.8-8.8-8.8h-1.3V50H60  c3.2,0,3.2-5,0-5h-7.5v-2.5c0-3.2-5-3.2-5,0V45h-1.3c-4.8,0-8.8,3.9-8.8,8.8s3.9,8.8,8.8,8.8h1.3V70H40z M52.5,62.5h1.3  c2.1,0,3.8,1.7,3.8,3.8S55.8,70,53.8,70h-1.3V62.5z M46.3,57.5c-2.1,0-3.8-1.7-3.8-3.8s1.7-3.8,3.8-3.8h1.3v7.5H46.3z"/></svg>