<svg xmlns="http://www.w3.org/2000/svg" width="28" height="23" viewBox="0 0 28 23">
  <defs>
    <style>
      .cls-1 {
        fill: #1c60ff;
        fill-rule: evenodd;
      }
    </style>
  </defs>
  <path id="github" class="cls-1" d="M1216.84,9843.43c-1.09,0-1.98,1.19-1.98,2.65s0.89,2.66,1.98,2.66,1.98-1.19,1.98-2.66S1217.93,9843.43,1216.84,9843.43Zm6.89-6.9a12.846,12.846,0,0,0-.97-6.53s-2.76.29-6.93,3.07a20.553,20.553,0,0,0-7.66,0c-4.17-2.78-6.93-3.07-6.93-3.07a12.846,12.846,0,0,0-.97,6.53,7.834,7.834,0,0,0-2.27,5.7c0,10.6,9.07,10.77,11.36,10.77h5.28c2.29,0,11.36-.17,11.36-10.77A7.834,7.834,0,0,0,1223.73,9836.53Zm-11.69,15.16h-0.08c-5.74,0-10.21-.66-10.21-6.06a4.516,4.516,0,0,1,1.59-3.5c1.87-1.66,5.03-.78,8.62-0.78h0.08c3.59,0,6.75-.88,8.62.78a4.516,4.516,0,0,1,1.59,3.5C1222.25,9851.03,1217.78,9851.69,1212.04,9851.69Zm-4.88-8.26c-1.09,0-1.98,1.19-1.98,2.65s0.89,2.66,1.98,2.66,1.98-1.19,1.98-2.66S1208.25,9843.43,1207.16,9843.43Z" transform="translate(-1198 -9830)"/>
</svg>
