<svg xmlns="http://www.w3.org/2000/svg" width="31" height="25" viewBox="0 0 31 25">
    <defs>
        <style>
            .cls-1 {
            fill: #fff;
            fill-rule: evenodd;
            }
        </style>
    </defs>
    <path id="Forma_1" data-name="Forma 1" class="cls-1" d="M1402.61,9842.42h0Zm9.65,0h0Zm10.74-2.88a3.855,3.855,0,0,0-6.18-3.07,16.181,16.181,0,0,0-7.97-2.6l1.62-3.79,4.71,1.1a2.88,2.88,0,1,0,.45-1.87l-5.51-1.29a0.983,0.983,0,0,0-1.11.56l-2.24,5.24a16.606,16.606,0,0,0-8.65,2.6,3.791,3.791,0,0,0-2.26-.73,3.86,3.86,0,0,0-3.86,3.85,3.814,3.814,0,0,0,1.95,3.33,4.349,4.349,0,0,0-.02.51c0,5.31,6.06,9.62,13.5,9.62s13.51-4.31,13.51-9.62c0-.15-0.01-0.29-0.02-0.44A3.805,3.805,0,0,0,1423,9839.54Zm-4.96-9.62a0.965,0.965,0,1,1-.96.96A0.969,0.969,0,0,1,1418.04,9829.92Zm-17.36,12.5a1.93,1.93,0,1,1,1.93,1.93A1.929,1.929,0,0,1,1400.68,9842.42Zm11.21,6.38a7.611,7.611,0,0,1-8.91,0,0.96,0.96,0,0,1-.22-1.34,0.972,0.972,0,0,1,1.35-.22,5.658,5.658,0,0,0,6.65,0,0.96,0.96,0,0,1,1.34.22A0.95,0.95,0,0,1,1411.89,9848.8Zm0.37-4.45a1.925,1.925,0,1,1,1.92-1.93A1.931,1.931,0,0,1,1412.26,9844.35Z" transform="translate(-1392 -9828)"/>
</svg>
