<svg xmlns="http://www.w3.org/2000/svg" width="17.657" height="16" viewBox="0 0 17.657 16">
  <metadata><?xpacket begin="﻿" id="W5M0MpCehiHzreSzNTczkc9d"?>
<x:xmpmeta xmlns:x="adobe:ns:meta/" x:xmptk="Adobe XMP Core 5.6-c138 79.159824, 2016/09/14-01:09:01        ">
   <rdf:RDF xmlns:rdf="http://www.w3.org/1999/02/22-rdf-syntax-ns#">
      <rdf:Description rdf:about=""/>
   </rdf:RDF>
</x:xmpmeta>
                                                                                                    
                                                                                                    
                                                                                                    
                                                                                                    
                                                                                                    
                                                                                                    
                                                                                                    
                                                                                                    
                                                                                                    
                                                                                                    
                                                                                                    
                                                                                                    
                                                                                                    
                                                                                                    
                                                                                                    
                                                                                                    
                                                                                                    
                                                                                                    
                                                                                                    
                                                                                                    
                           
<?xpacket end="w"?></metadata>
<defs>
    <style>
      .cls-1 {
        fill: #fff;
        fill-rule: evenodd;
      }
    </style>
  </defs>
  <path id="linkedin" class="cls-1" d="M283.523,1246.2h3.8v10.79h-3.8V1246.2Zm16.256,0.98a4.212,4.212,0,0,0-3.164-1.23,4.529,4.529,0,0,0-1.317.17,3.075,3.075,0,0,0-1,.47,4.265,4.265,0,0,0-.65.57,4.117,4.117,0,0,0-.449.57v-1.53h-3.784l0.011,0.52c0.008,0.35.012,1.42,0.012,3.22s-0.008,4.15-.023,7.05H293.2v-6.02a2.469,2.469,0,0,1,.127-0.88,2.287,2.287,0,0,1,.73-0.94,1.936,1.936,0,0,1,1.214-.37,1.654,1.654,0,0,1,1.456.65,3.021,3.021,0,0,1,.466,1.79v5.77h3.784v-6.19A5.012,5.012,0,0,0,299.779,1247.18ZM285.445,1241a2.252,2.252,0,0,0-1.548.53,1.709,1.709,0,0,0-.592,1.33,1.734,1.734,0,0,0,.575,1.33,2.13,2.13,0,0,0,1.519.54h0.023a2.225,2.225,0,0,0,1.559-.54,1.677,1.677,0,0,0,.581-1.33,1.772,1.772,0,0,0-.587-1.33A2.184,2.184,0,0,0,285.445,1241Z" transform="translate(-283.312 -1241)"/>
</svg>
