<svg xmlns="http://www.w3.org/2000/svg" width="25" height="23" viewBox="0 0 25 23">
    <defs>
        <style>
            .cls-1 {
            fill: #fff;
            fill-rule: evenodd;
            }
        </style>
    </defs>
    <path id="telegram" class="cls-1" d="M1598.12,9853a0.928,0.928,0,0,1-.55-0.18l-6.29-4.38-3.37,2.49a0.93,0.93,0,0,1-.91.13,0.979,0.979,0,0,1-.62-0.69l-1.69-6.6-6.05-2.38a1.026,1.026,0,0,1-.64-0.95,1.038,1.038,0,0,1,.63-0.95l22.99-9.41a1,1,0,0,1,.33-0.08h0.12a0.947,0.947,0,0,1,.63.29,0.265,0.265,0,0,1,.05.06,0.961,0.961,0,0,1,.24.59,0.429,0.429,0,0,1,0,.16c0,0.04-.01.08-0.01,0.12l-3.88,20.95a1.025,1.025,0,0,1-.6.75A1,1,0,0,1,1598.12,9853Zm-6.28-6.64,5.59,3.91,3.02-16.3-10.9,10.79,2.26,1.58A0.053,0.053,0,0,0,1591.84,9846.36Zm-4.66-.87,0.74,2.93,1.62-1.2-2.12-1.48A0.82,0.82,0,0,1,1587.18,9845.49Zm-5.47-5.07,4.16,1.63a1.037,1.037,0,0,1,.6.69l0.53,2.06a1,1,0,0,1,.29-0.63l10.4-10.29Z" transform="translate(-1578 -9830)"/>
</svg>
