<svg xmlns="http://www.w3.org/2000/svg" width="17.687" height="11.97" viewBox="0 0 17.687 11.97">
  <metadata><?xpacket begin="﻿" id="W5M0MpCehiHzreSzNTczkc9d"?>
<x:xmpmeta xmlns:x="adobe:ns:meta/" x:xmptk="Adobe XMP Core 5.6-c138 79.159824, 2016/09/14-01:09:01        ">
   <rdf:RDF xmlns:rdf="http://www.w3.org/1999/02/22-rdf-syntax-ns#">
      <rdf:Description rdf:about=""/>
   </rdf:RDF>
</x:xmpmeta>
                                                                                                    
                                                                                                    
                                                                                                    
                                                                                                    
                                                                                                    
                                                                                                    
                                                                                                    
                                                                                                    
                                                                                                    
                                                                                                    
                                                                                                    
                                                                                                    
                                                                                                    
                                                                                                    
                                                                                                    
                                                                                                    
                                                                                                    
                                                                                                    
                                                                                                    
                                                                                                    
                           
<?xpacket end="w"?></metadata>
<defs>
    <style>
      .cls-1 {
        fill: #fff;
        fill-rule: evenodd;
      }
    </style>
  </defs>
  <path id="mail" class="cls-1" d="M338.961,1252.18h0a0.681,0.681,0,0,0,.371-0.11l0.029-.02c0.007,0,.013-0.01.02-0.01l0.337-.28,8.04-6.73a0.106,0.106,0,0,0-.075-0.04h-17.5a0.073,0.073,0,0,0-.058.03l8.412,7.02A0.645,0.645,0,0,0,338.961,1252.18Zm-8.864-6.23v9.96l6.026-4.93Zm11.664,5.06,6.019,4.9v-9.93Zm-1.914,1.6a1.414,1.414,0,0,1-1.767,0l-1.38-1.15-6.6,5.4v0.02a0.093,0.093,0,0,0,.1.09h17.5a0.092,0.092,0,0,0,.093-0.09v-0.02l-6.6-5.37Z" transform="translate(-330.094 -1245)"/>
</svg>
