<svg xmlns="http://www.w3.org/2000/svg" width="27" height="23" viewBox="0 0 27 23">
  <defs>
    <style>
      .cls-1 {
        fill: #1c60ff;
        fill-rule: evenodd;
      }
    </style>
  </defs>
  <path id="medium" class="cls-1" d="M1486.92,9834.21a0.038,0.038,0,0,0-.02-0.02h0l-8.15-4.1a0.578,0.578,0,0,0-.17-0.06,0.908,0.908,0,0,0-.23-0.03,0.944,0.944,0,0,0-.79.43l-4.69,7.67,5.89,9.62,8.19-13.38A0.106,0.106,0,0,0,1486.92,9834.21Zm-16.63,2.14v8.73l7.71,3.88Zm8.87,13.19,6.35,3.2c0.82,0.41,1.49.12,1.49-.65v-15.37Zm-10.21-15.32-7.96-4a0.808,0.808,0,0,0-.4-0.11,0.624,0.624,0,0,0-.59.73v17.28a1.5,1.5,0,0,0,.74,1.22l7.01,3.52a1.155,1.155,0,0,0,.51.14,0.786,0.786,0,0,0,.74-0.91V9834.3A0.079,0.079,0,0,0,1468.95,9834.22Z" transform="translate(-1460 -9830)"/>
</svg>
