<?xml version="1.0" encoding="utf-8"?>
<!-- Generator: Adobe Illustrator 22.0.1, SVG Export Plug-In . SVG Version: 6.00 Build 0)  -->
<svg  height="23" width="27" version="1.1" id="Layer_1" xmlns="http://www.w3.org/2000/svg" xmlns:xlink="http://www.w3.org/1999/xlink" x="0px" y="0px"
	 viewBox="0 0 27.4 23.2" style="enable-background:new 0 0 27.4 23.2;" xml:space="preserve">
<style type="text/css">
	.st0{fill:#1C60FF;}
</style>
<path class="st0" d="M27.2,11.7L27.2,11.7L27.2,11.7c0-1.4-0.4-2.7-1.2-3.9c-0.7-1.1-1.7-2-3-2.9c-2.4-1.6-5.7-2.4-9.1-2.4
	c-1.1,0-2.3,0.1-3.3,0.3C10,2.1,9.2,1.6,8.4,1.1C3.9-1,0.2,1.1,0.2,1.1s3.4,2.8,2.9,5.3c-1.5,1.5-2.4,3.4-2.4,5.3c0,0,0,0,0,0
	c0,0,0,0,0,0c0,1.9,0.8,3.7,2.4,5.3c0.6,2.5-2.9,5.3-2.9,5.3s3.7,2.1,8.1-0.1c0.8-0.4,1.6-1,2.3-1.6c1.1,0.2,2.2,0.3,3.3,0.3
	c3.4,0,6.6-0.9,9.1-2.4c1.3-0.8,2.3-1.8,3-2.9C26.8,14.3,27.2,13,27.2,11.7C27.2,11.7,27.2,11.7,27.2,11.7z M14,18.9
	c-1.4,0-2.7-0.2-4-0.5c-1.3,1.5-4,3.6-6.7,2.9c0.9-0.9,2.2-2.5,1.9-5.1c-1.6-1.3-2.6-2.9-2.6-4.6c0-4,5.1-7.3,11.4-7.3
	c6.3,0,11.4,3.3,11.4,7.3C25.4,15.7,20.3,18.9,14,18.9z"/>
<path class="st0" d="M14,13.4c0.8,0,1.5-0.7,1.5-1.5c0-0.8-0.7-1.5-1.5-1.5c-0.8,0-1.5,0.7-1.5,1.5C12.5,12.7,13.1,13.4,14,13.4z
	 M19.2,13.4c0.8,0,1.5-0.7,1.5-1.5c0-0.8-0.7-1.5-1.5-1.5c-0.8,0-1.5,0.7-1.5,1.5C17.7,12.7,18.4,13.4,19.2,13.4z M8.7,13.4
	c0.8,0,1.5-0.7,1.5-1.5c0-0.8-0.7-1.5-1.5-1.5c-0.8,0-1.5,0.7-1.5,1.5C7.2,12.7,7.9,13.4,8.7,13.4L8.7,13.4z"/>
</svg>
