<svg xmlns="http://www.w3.org/2000/svg" xmlns:xlink="http://www.w3.org/1999/xlink" width="28" height="19.03" viewBox="0 0 28 19.03">
  <defs>
    <style>
      .cls-1 {
        fill: #1c60ff;
        fill-rule: evenodd;
        filter: url(#filter);
      }
    </style>
    <filter id="filter" x="1642" y="9831.97" width="28" height="19.03" filterUnits="userSpaceOnUse">
      <feFlood result="flood" flood-color="#1c60ff"/>
      <feComposite result="composite" operator="in" in2="SourceGraphic"/>
      <feBlend result="blend" in2="SourceGraphic"/>
    </filter>
  </defs>
  <path id="youtube" class="cls-1" d="M1661.53,9842.3l-7.99,4.75a0.951,0.951,0,0,1-.54.15,1.131,1.131,0,0,1-.48-0.12,0.876,0.876,0,0,1-.51-0.83v-9.51a0.867,0.867,0,0,1,.51-0.83,0.984,0.984,0,0,1,1.02.03l7.99,4.75a0.924,0.924,0,0,1,0,1.61h0Zm8.31-5.06a17.331,17.331,0,0,0-.34-2.2,3.484,3.484,0,0,0-3.02-2.68c-2.31-.25-5.81-0.38-10.48-0.38s-8.16.13-10.47,0.38a3.281,3.281,0,0,0-1.94.86,3.444,3.444,0,0,0-1.08,1.82,17.23,17.23,0,0,0-.35,2.2c-0.07.81-.12,1.49-0.13,2.02s-0.01,1.28-.01,2.23,0,1.7.01,2.23,0.06,1.21.13,2.03a16.88,16.88,0,0,0,.34,2.19,3.472,3.472,0,0,0,1.08,1.83,3.4,3.4,0,0,0,1.95.86Q1649,9851,1656,9851c4.67,0,8.17-.12,10.48-0.37a3.343,3.343,0,0,0,1.93-.86,3.472,3.472,0,0,0,1.08-1.83,16.776,16.776,0,0,0,.35-2.19c0.08-.82.12-1.49,0.13-2.03s0.02-1.28.02-2.23-0.01-1.69-.02-2.23S1669.92,9838.05,1669.84,9837.24Z" transform="translate(-1642 -9831.97)"/>
</svg>
